STARTFONT 2.1
FONT -Monotype-Bembo-Bold-R-Normal--14-140-72-72-P-70-iso8859-1
SIZE 14 72 72
FONTBOUNDINGBOX 16 16 -2 -3

STARTPROPERTIES 22
FOUNDRY "Monotype"
FAMILY_NAME "Bembo"
WEIGHT_NAME "Bold"
SLANT "R"
SETWIDTH_NAME "Normal"
ADD_STYLE_NAME ""
PIXEL_SIZE 14
POINT_SIZE 140
RESOLUTION_X 72
RESOLUTION_Y 72
SPACING "P"
AVERAGE_WIDTH 70
CHARSET_REGISTRY "iso8859"
CHARSET_ENCODING "1"
COPYRIGHT "Copyright (c) 1996 Monotype Typography Ltd."
CAP_HEIGHT 10
X_HEIGHT 6
WEIGHT 10
QUAD_WIDTH 9
DEFAULT_CHAR 32
FONT_DESCENT 4
FONT_ASCENT 13
ENDPROPERTIES

CHARS 191

STARTCHAR space
ENCODING 32
SWIDTH 333 0
DWIDTH 6 0
BBX 0 0 0 0
BITMAP
ENDCHAR

STARTCHAR exclam
ENCODING 33
SWIDTH 313 0
DWIDTH 5 0
BBX 2 10 1 0
BITMAP
C0
C0
C0
C0
C0
C0
00
00
C0
C0
ENDCHAR

STARTCHAR quotedbl
ENCODING 34
SWIDTH 552 0
DWIDTH 8 0
BBX 5 4 2 6
BITMAP
D8
D8
D8
D8
ENDCHAR

STARTCHAR numbersign
ENCODING 35
SWIDTH 668 0
DWIDTH 10 0
BBX 9 10 0 0
BITMAP
1100
1100
1100
7F80
2200
2200
FF00
4400
4400
4400
ENDCHAR

STARTCHAR dollar
ENCODING 36
SWIDTH 479 0
DWIDTH 7 0
BBX 5 12 1 -1
BITMAP
20
70
A8
A0
A0
60
70
30
28
A8
70
20
ENDCHAR

STARTCHAR percent
ENCODING 37
SWIDTH 896 0
DWIDTH 13 0
BBX 11 10 0 0
BITMAP
7060
D8C0
D980
DB00
7600
0DC0
1B60
3360
6360
C1C0
ENDCHAR

STARTCHAR ampersand
ENCODING 38
SWIDTH 750 0
DWIDTH 11 0
BBX 10 9 0 0
BITMAP
3800
6C00
6C00
39C0
3880
6D00
C600
CF00
7BC0
ENDCHAR

STARTCHAR quoteright
ENCODING 39
SWIDTH 313 0
DWIDTH 5 0
BBX 3 4 0 6
BITMAP
60
60
20
C0
ENDCHAR

STARTCHAR parenleft
ENCODING 40
SWIDTH 354 0
DWIDTH 5 0
BBX 4 13 1 -3
BITMAP
10
20
60
40
C0
C0
C0
C0
C0
40
60
20
10
ENDCHAR

STARTCHAR parenright
ENCODING 41
SWIDTH 354 0
DWIDTH 5 0
BBX 4 13 0 -3
BITMAP
80
40
60
20
30
30
30
30
30
20
60
40
80
ENDCHAR

STARTCHAR asterisk
ENCODING 42
SWIDTH 521 0
DWIDTH 8 0
BBX 7 6 0 3
BITMAP
10
D6
7C
38
7C
C6
ENDCHAR

STARTCHAR plus
ENCODING 43
SWIDTH 667 0
DWIDTH 10 0
BBX 7 7 1 1
BITMAP
10
10
10
FE
10
10
10
ENDCHAR

STARTCHAR comma
ENCODING 44
SWIDTH 313 0
DWIDTH 5 0
BBX 3 4 0 -2
BITMAP
60
60
20
C0
ENDCHAR

STARTCHAR minus
ENCODING 45
SWIDTH 667 0
DWIDTH 10 0
BBX 8 1 1 4
BITMAP
FF
ENDCHAR

STARTCHAR period
ENCODING 46
SWIDTH 313 0
DWIDTH 5 0
BBX 2 2 1 0
BITMAP
C0
C0
ENDCHAR

STARTCHAR slash
ENCODING 47
SWIDTH 531 0
DWIDTH 8 0
BBX 6 11 0 -1
BITMAP
04
0C
08
18
10
30
20
60
40
C0
80
ENDCHAR

STARTCHAR zero
ENCODING 48
SWIDTH 500 0
DWIDTH 8 0
BBX 6 10 1 0
BITMAP
78
CC
CC
CC
CC
CC
CC
CC
CC
78
ENDCHAR

STARTCHAR one
ENCODING 49
SWIDTH 500 0
DWIDTH 8 0
BBX 4 10 2 0
BITMAP
20
60
E0
60
60
60
60
60
60
F0
ENDCHAR

STARTCHAR two
ENCODING 50
SWIDTH 500 0
DWIDTH 8 0
BBX 6 10 1 0
BITMAP
78
DC
8C
0C
08
18
10
24
7C
FC
ENDCHAR

STARTCHAR three
ENCODING 51
SWIDTH 500 0
DWIDTH 8 0
BBX 6 10 1 0
BITMAP
70
D8
98
10
38
4C
0C
0C
D8
70
ENDCHAR

STARTCHAR four
ENCODING 52
SWIDTH 500 0
DWIDTH 8 0
BBX 7 10 0 0
BITMAP
04
0C
1C
2C
4C
8C
FE
0C
0C
0C
ENDCHAR

STARTCHAR five
ENCODING 53
SWIDTH 500 0
DWIDTH 8 0
BBX 6 10 1 0
BITMAP
78
78
40
40
78
4C
0C
0C
C8
70
ENDCHAR

STARTCHAR six
ENCODING 54
SWIDTH 500 0
DWIDTH 8 0
BBX 6 10 1 0
BITMAP
18
30
60
40
D8
EC
CC
CC
EC
78
ENDCHAR

STARTCHAR seven
ENCODING 55
SWIDTH 500 0
DWIDTH 8 0
BBX 6 10 1 0
BITMAP
FC
FC
8C
08
18
10
30
20
60
40
ENDCHAR

STARTCHAR eight
ENCODING 56
SWIDTH 500 0
DWIDTH 8 0
BBX 6 10 1 0
BITMAP
78
CC
CC
CC
78
78
CC
CC
CC
78
ENDCHAR

STARTCHAR nine
ENCODING 57
SWIDTH 500 0
DWIDTH 8 0
BBX 6 10 1 0
BITMAP
78
DC
CC
CC
DC
6C
08
18
30
60
ENDCHAR

STARTCHAR colon
ENCODING 58
SWIDTH 313 0
DWIDTH 5 0
BBX 2 6 1 0
BITMAP
C0
C0
00
00
C0
C0
ENDCHAR

STARTCHAR semicolon
ENCODING 59
SWIDTH 313 0
DWIDTH 5 0
BBX 3 8 0 -2
BITMAP
60
60
00
00
60
60
20
C0
ENDCHAR

STARTCHAR less
ENCODING 60
SWIDTH 667 0
DWIDTH 10 0
BBX 8 8 1 1
BITMAP
03
0C
30
C0
C0
30
0C
03
ENDCHAR

STARTCHAR equal
ENCODING 61
SWIDTH 667 0
DWIDTH 10 0
BBX 8 4 1 3
BITMAP
FF
00
00
FF
ENDCHAR

STARTCHAR greater
ENCODING 62
SWIDTH 667 0
DWIDTH 10 0
BBX 8 8 1 1
BITMAP
C0
30
0C
03
03
0C
30
C0
ENDCHAR

STARTCHAR question
ENCODING 63
SWIDTH 365 0
DWIDTH 5 0
BBX 4 10 1 0
BITMAP
E0
F0
10
30
70
E0
80
00
C0
C0
ENDCHAR

STARTCHAR at
ENCODING 64
SWIDTH 927 0
DWIDTH 14 0
BBX 12 13 1 -3
BITMAP
0FC0
3020
4010
4390
8D90
8D90
9990
9990
9BA0
4CC0
4010
3060
0F80
ENDCHAR

STARTCHAR A
ENCODING 65
SWIDTH 740 0
DWIDTH 11 0
BBX 11 10 0 0
BITMAP
0C00
0C00
0E00
1600
1300
3F00
2180
4180
40C0
E1E0
ENDCHAR

STARTCHAR B
ENCODING 66
SWIDTH 698 0
DWIDTH 10 0
BBX 8 10 1 0
BITMAP
FC
66
66
66
7C
66
63
63
63
FE
ENDCHAR

STARTCHAR C
ENCODING 67
SWIDTH 740 0
DWIDTH 11 0
BBX 9 10 1 0
BITMAP
1F80
6180
C080
C000
C000
C000
C000
C080
6180
1F80
ENDCHAR

STARTCHAR D
ENCODING 68
SWIDTH 823 0
DWIDTH 12 0
BBX 10 10 1 0
BITMAP
FE00
6300
6180
60C0
60C0
60C0
60C0
6180
6300
FE00
ENDCHAR

STARTCHAR E
ENCODING 69
SWIDTH 646 0
DWIDTH 10 0
BBX 8 10 1 0
BITMAP
FF
61
60
62
7E
62
60
60
61
FF
ENDCHAR

STARTCHAR F
ENCODING 70
SWIDTH 594 0
DWIDTH 9 0
BBX 8 10 1 0
BITMAP
FF
61
60
62
7E
62
60
60
60
F0
ENDCHAR

STARTCHAR G
ENCODING 71
SWIDTH 781 0
DWIDTH 12 0
BBX 11 10 1 0
BITMAP
1F40
60C0
C040
C000
C000
C3E0
C0C0
C0C0
60C0
1F00
ENDCHAR

STARTCHAR H
ENCODING 72
SWIDTH 833 0
DWIDTH 12 0
BBX 10 10 1 0
BITMAP
F3C0
6180
6180
6180
7F80
6180
6180
6180
6180
F3C0
ENDCHAR

STARTCHAR I
ENCODING 73
SWIDTH 365 0
DWIDTH 5 0
BBX 4 10 0 0
BITMAP
F0
60
60
60
60
60
60
60
60
F0
ENDCHAR

STARTCHAR J
ENCODING 74
SWIDTH 344 0
DWIDTH 5 0
BBX 6 13 -2 -3
BITMAP
3C
18
18
18
18
18
18
18
18
18
18
D8
70
ENDCHAR

STARTCHAR K
ENCODING 75
SWIDTH 740 0
DWIDTH 11 0
BBX 10 10 0 0
BITMAP
F3C0
6100
6200
6400
7C00
6C00
6600
6300
6180
F3C0
ENDCHAR

STARTCHAR L
ENCODING 76
SWIDTH 604 0
DWIDTH 9 0
BBX 8 10 1 0
BITMAP
F8
60
60
60
60
60
60
60
61
FE
ENDCHAR

STARTCHAR M
ENCODING 77
SWIDTH 927 0
DWIDTH 14 0
BBX 13 10 0 0
BITMAP
E038
6030
7070
7070
58B0
58B0
4D30
4D30
4630
E678
ENDCHAR

STARTCHAR N
ENCODING 78
SWIDTH 813 0
DWIDTH 12 0
BBX 10 10 1 0
BITMAP
E1C0
7080
7880
5C80
4C80
4680
4780
4380
4180
E080
ENDCHAR

STARTCHAR O
ENCODING 79
SWIDTH 844 0
DWIDTH 13 0
BBX 11 10 1 0
BITMAP
1F00
60C0
C060
C060
C060
C060
C060
C060
60C0
1F00
ENDCHAR

STARTCHAR P
ENCODING 80
SWIDTH 646 0
DWIDTH 10 0
BBX 8 10 1 0
BITMAP
FE
63
63
63
63
7E
60
60
60
F8
ENDCHAR

STARTCHAR Q
ENCODING 81
SWIDTH 844 0
DWIDTH 13 0
BBX 11 13 1 -3
BITMAP
1F00
60C0
C060
C060
C060
C060
C060
C060
60C0
1F00
0600
0300
01C0
ENDCHAR

STARTCHAR R
ENCODING 82
SWIDTH 771 0
DWIDTH 12 0
BBX 11 10 1 0
BITMAP
FE00
6300
6180
6180
6300
7E00
6600
6300
6180
F0E0
ENDCHAR

STARTCHAR S
ENCODING 83
SWIDTH 563 0
DWIDTH 8 0
BBX 6 10 1 0
BITMAP
74
CC
C4
E0
70
38
1C
8C
CC
B8
ENDCHAR

STARTCHAR T
ENCODING 84
SWIDTH 729 0
DWIDTH 11 0
BBX 10 10 0 0
BITMAP
FFC0
8C40
0C00
0C00
0C00
0C00
0C00
0C00
0C00
1E00
ENDCHAR

STARTCHAR U
ENCODING 85
SWIDTH 771 0
DWIDTH 12 0
BBX 10 10 1 0
BITMAP
F1C0
6080
6080
6080
6080
6080
6080
6080
3100
1E00
ENDCHAR

STARTCHAR V
ENCODING 86
SWIDTH 750 0
DWIDTH 11 0
BBX 10 10 0 0
BITMAP
F3C0
6080
6100
3100
3200
3200
1C00
1C00
0800
0800
ENDCHAR

STARTCHAR W
ENCODING 87
SWIDTH 1000 0
DWIDTH 15 0
BBX 14 10 0 0
BITMAP
F7DC
6688
6710
3310
3320
3320
1DC0
1DC0
0880
0880
ENDCHAR

STARTCHAR X
ENCODING 88
SWIDTH 802 0
DWIDTH 12 0
BBX 11 10 0 0
BITMAP
F1E0
6080
3100
1A00
0C00
0E00
1300
2180
40C0
E1E0
ENDCHAR

STARTCHAR Y
ENCODING 89
SWIDTH 750 0
DWIDTH 11 0
BBX 10 10 0 0
BITMAP
F1C0
6080
3100
1A00
0C00
0C00
0C00
0C00
0C00
3F00
ENDCHAR

STARTCHAR Z
ENCODING 90
SWIDTH 750 0
DWIDTH 11 0
BBX 9 10 1 0
BITMAP
FF80
8180
0300
0600
0C00
1800
3000
6000
C080
FF80
ENDCHAR

STARTCHAR bracketleft
ENCODING 91
SWIDTH 365 0
DWIDTH 5 0
BBX 4 13 1 -3
BITMAP
F0
C0
C0
C0
C0
C0
C0
C0
C0
C0
C0
C0
F0
ENDCHAR

STARTCHAR backslash
ENCODING 92
SWIDTH 531 0
DWIDTH 8 0
BBX 6 11 1 -1
BITMAP
80
C0
40
60
20
30
10
18
08
0C
04
ENDCHAR

STARTCHAR bracketright
ENCODING 93
SWIDTH 365 0
DWIDTH 5 0
BBX 4 13 0 -3
BITMAP
F0
30
30
30
30
30
30
30
30
30
30
30
F0
ENDCHAR

STARTCHAR asciicircum
ENCODING 94
SWIDTH 583 0
DWIDTH 9 0
BBX 7 4 1 6
BITMAP
10
28
44
82
ENDCHAR

STARTCHAR underscore
ENCODING 95
SWIDTH 500 0
DWIDTH 8 0
BBX 8 1 0 -2
BITMAP
FF
ENDCHAR

STARTCHAR quoteleft
ENCODING 96
SWIDTH 313 0
DWIDTH 5 0
BBX 3 4 1 6
BITMAP
60
80
C0
C0
ENDCHAR

STARTCHAR a
ENCODING 97
SWIDTH 479 0
DWIDTH 7 0
BBX 6 6 0 0
BITMAP
70
D8
38
58
D8
EC
ENDCHAR

STARTCHAR b
ENCODING 98
SWIDTH 573 0
DWIDTH 9 0
BBX 7 10 0 0
BITMAP
60
E0
60
60
6C
76
66
66
66
7C
ENDCHAR

STARTCHAR c
ENCODING 99
SWIDTH 490 0
DWIDTH 7 0
BBX 5 6 1 0
BITMAP
70
C8
C0
C0
C8
70
ENDCHAR

STARTCHAR d
ENCODING 100
SWIDTH 573 0
DWIDTH 9 0
BBX 7 10 1 0
BITMAP
0C
1C
0C
0C
6C
DC
CC
CC
DC
6E
ENDCHAR

STARTCHAR e
ENCODING 101
SWIDTH 479 0
DWIDTH 7 0
BBX 5 6 1 0
BITMAP
70
D8
F8
C0
C8
70
ENDCHAR

STARTCHAR f
ENCODING 102
SWIDTH 323 0
DWIDTH 5 0
BBX 5 10 0 0
BITMAP
18
20
60
60
F0
60
60
60
60
F0
ENDCHAR

STARTCHAR g
ENCODING 103
SWIDTH 552 0
DWIDTH 8 0
BBX 7 9 0 -3
BITMAP
7E
CC
CC
78
C0
7C
C6
C6
7C
ENDCHAR

STARTCHAR h
ENCODING 104
SWIDTH 563 0
DWIDTH 8 0
BBX 8 10 0 0
BITMAP
60
E0
60
60
6C
76
66
66
66
F7
ENDCHAR

STARTCHAR i
ENCODING 105
SWIDTH 292 0
DWIDTH 4 0
BBX 4 9 0 0
BITMAP
60
60
00
60
E0
60
60
60
F0
ENDCHAR

STARTCHAR j
ENCODING 106
SWIDTH 281 0
DWIDTH 4 0
BBX 4 12 -1 -3
BITMAP
30
30
00
30
70
30
30
30
30
30
20
C0
ENDCHAR

STARTCHAR k
ENCODING 107
SWIDTH 542 0
DWIDTH 8 0
BBX 8 10 0 0
BITMAP
60
E0
60
60
66
68
78
6C
66
F7
ENDCHAR

STARTCHAR l
ENCODING 108
SWIDTH 271 0
DWIDTH 4 0
BBX 4 10 0 0
BITMAP
60
E0
60
60
60
60
60
60
60
F0
ENDCHAR

STARTCHAR m
ENCODING 109
SWIDTH 927 0
DWIDTH 14 0
BBX 12 6 1 0
BITMAP
6DC0
F660
6660
6660
6660
F770
ENDCHAR

STARTCHAR n
ENCODING 110
SWIDTH 573 0
DWIDTH 9 0
BBX 8 6 0 0
BITMAP
6C
F6
66
66
66
F7
ENDCHAR

STARTCHAR o
ENCODING 111
SWIDTH 573 0
DWIDTH 9 0
BBX 6 6 1 0
BITMAP
78
CC
CC
CC
CC
78
ENDCHAR

STARTCHAR p
ENCODING 112
SWIDTH 573 0
DWIDTH 9 0
BBX 7 9 0 -3
BITMAP
6C
F6
66
66
76
6C
60
60
F0
ENDCHAR

STARTCHAR q
ENCODING 113
SWIDTH 573 0
DWIDTH 9 0
BBX 7 9 1 -3
BITMAP
74
CC
CC
CC
DC
6C
0C
0C
1E
ENDCHAR

STARTCHAR r
ENCODING 114
SWIDTH 396 0
DWIDTH 6 0
BBX 6 6 0 0
BITMAP
EC
7C
60
60
60
F0
ENDCHAR

STARTCHAR s
ENCODING 115
SWIDTH 375 0
DWIDTH 6 0
BBX 4 6 1 0
BITMAP
70
D0
60
30
B0
E0
ENDCHAR

STARTCHAR t
ENCODING 116
SWIDTH 344 0
DWIDTH 5 0
BBX 5 8 0 0
BITMAP
20
60
F0
60
60
60
68
30
ENDCHAR

STARTCHAR u
ENCODING 117
SWIDTH 573 0
DWIDTH 9 0
BBX 8 6 0 0
BITMAP
66
EE
66
66
6E
37
ENDCHAR

STARTCHAR v
ENCODING 118
SWIDTH 521 0
DWIDTH 8 0
BBX 8 6 0 0
BITMAP
F7
62
34
34
18
18
ENDCHAR

STARTCHAR w
ENCODING 119
SWIDTH 781 0
DWIDTH 12 0
BBX 13 6 -1 0
BITMAP
F738
6310
37A0
35A0
18C0
18C0
ENDCHAR

STARTCHAR x
ENCODING 120
SWIDTH 531 0
DWIDTH 8 0
BBX 6 6 1 0
BITMAP
EC
68
30
30
58
DC
ENDCHAR

STARTCHAR y
ENCODING 121
SWIDTH 521 0
DWIDTH 8 0
BBX 8 9 0 -3
BITMAP
F7
62
34
34
18
18
10
60
60
ENDCHAR

STARTCHAR z
ENCODING 122
SWIDTH 510 0
DWIDTH 8 0
BBX 6 6 1 0
BITMAP
FC
98
30
60
C4
FC
ENDCHAR

STARTCHAR braceleft
ENCODING 123
SWIDTH 396 0
DWIDTH 6 0
BBX 3 13 1 -3
BITMAP
20
40
40
40
40
40
80
40
40
40
40
40
20
ENDCHAR

STARTCHAR bar
ENCODING 124
SWIDTH 566 0
DWIDTH 8 0
BBX 1 13 4 -3
BITMAP
80
80
80
80
80
80
80
80
80
80
80
80
80
ENDCHAR

STARTCHAR braceright
ENCODING 125
SWIDTH 396 0
DWIDTH 6 0
BBX 3 13 2 -3
BITMAP
80
40
40
40
40
40
20
40
40
40
40
40
80
ENDCHAR

STARTCHAR asciitilde
ENCODING 126
SWIDTH 521 0
DWIDTH 8 0
BBX 8 2 0 4
BITMAP
71
8E
ENDCHAR

STARTCHAR space
ENCODING 160
SWIDTH 333 0
DWIDTH 5 0
BBX 0 0 0 0
BITMAP
ENDCHAR

STARTCHAR exclamdown
ENCODING 161
SWIDTH 313 0
DWIDTH 5 0
BBX 2 9 1 -3
BITMAP
C0
C0
00
C0
C0
C0
C0
C0
C0
ENDCHAR

STARTCHAR cent
ENCODING 162
SWIDTH 490 0
DWIDTH 7 0
BBX 6 10 0 -2
BITMAP
08
08
78
D4
D0
D0
D4
78
20
20
ENDCHAR

STARTCHAR sterling
ENCODING 163
SWIDTH 833 0
DWIDTH 12 0
BBX 11 13 0 -3
BITMAP
00C0
0160
0300
0600
0600
0C00
0C00
1800
7E00
3000
7820
CE20
C3C0
ENDCHAR

STARTCHAR currency
ENCODING 164
SWIDTH 667 0
DWIDTH 10 0
BBX 7 7 1 1
BITMAP
BA
6C
C6
82
C6
6C
BA
ENDCHAR

STARTCHAR yen
ENCODING 165
SWIDTH 500 0
DWIDTH 8 0
BBX 8 10 0 0
BITMAP
F7
62
34
18
FF
18
FF
18
18
3C
ENDCHAR

STARTCHAR brokenbar
ENCODING 166
SWIDTH 566 0
DWIDTH 8 0
BBX 1 13 4 -3
BITMAP
80
80
80
80
80
00
00
80
80
80
80
80
80
ENDCHAR

STARTCHAR section
ENCODING 167
SWIDTH 469 0
DWIDTH 7 0
BBX 6 13 0 -3
BITMAP
38
6C
E0
B0
90
D8
48
6C
24
34
14
D8
70
ENDCHAR

STARTCHAR dieresis
ENCODING 168
SWIDTH 333 0
DWIDTH 5 0
BBX 5 2 0 7
BITMAP
D8
D8
ENDCHAR

STARTCHAR copyright
ENCODING 169
SWIDTH 750 0
DWIDTH 11 0
BBX 10 10 0 0
BITMAP
3F00
4080
8E40
9A40
9840
9840
9A40
8E40
4080
3F00
ENDCHAR

STARTCHAR ordfeminine
ENCODING 170
SWIDTH 365 0
DWIDTH 5 0
BBX 5 5 0 5
BITMAP
60
B0
70
B0
D8
ENDCHAR

STARTCHAR guillemotleft
ENCODING 171
SWIDTH 427 0
DWIDTH 6 0
BBX 6 5 0 1
BITMAP
24
48
90
48
24
ENDCHAR

STARTCHAR logicalnot
ENCODING 172
SWIDTH 667 0
DWIDTH 10 0
BBX 8 4 1 3
BITMAP
FF
01
01
01
ENDCHAR

STARTCHAR hyphen
ENCODING 173
SWIDTH 417 0
DWIDTH 6 0
BBX 4 1 1 3
BITMAP
F0
ENDCHAR

STARTCHAR registered
ENCODING 174
SWIDTH 750 0
DWIDTH 11 0
BBX 10 10 0 0
BITMAP
3F00
4080
BE40
9B40
9B40
9E40
9B40
BBC0
4080
3F00
ENDCHAR

STARTCHAR macron
ENCODING 175
SWIDTH 333 0
DWIDTH 5 0
BBX 5 1 0 8
BITMAP
F8
ENDCHAR

STARTCHAR degree
ENCODING 176
SWIDTH 396 0
DWIDTH 6 0
BBX 4 4 1 6
BITMAP
60
90
90
60
ENDCHAR

STARTCHAR plusminus
ENCODING 177
SWIDTH 668 0
DWIDTH 10 0
BBX 7 9 1 1
BITMAP
10
10
10
FE
10
10
10
00
FE
ENDCHAR

STARTCHAR twosuperior
ENCODING 178
SWIDTH 313 0
DWIDTH 5 0
BBX 4 5 0 5
BITMAP
60
B0
30
60
F0
ENDCHAR

STARTCHAR threesuperior
ENCODING 179
SWIDTH 313 0
DWIDTH 5 0
BBX 4 5 0 5
BITMAP
E0
30
60
30
E0
ENDCHAR

STARTCHAR acute
ENCODING 180
SWIDTH 333 0
DWIDTH 5 0
BBX 3 2 1 8
BITMAP
60
C0
ENDCHAR

STARTCHAR mu
ENCODING 181
SWIDTH 552 0
DWIDTH 8 0
BBX 8 9 0 -3
BITMAP
66
66
66
66
6E
77
40
C0
C0
ENDCHAR

STARTCHAR paragraph
ENCODING 182
SWIDTH 542 0
DWIDTH 8 0
BBX 7 13 1 -3
BITMAP
3E
74
F4
F4
F4
74
34
14
14
14
14
14
14
ENDCHAR

STARTCHAR periodcentered
ENCODING 183
SWIDTH 313 0
DWIDTH 5 0
BBX 2 2 1 4
BITMAP
C0
C0
ENDCHAR

STARTCHAR cedilla
ENCODING 184
SWIDTH 333 0
DWIDTH 5 0
BBX 4 3 0 -3
BITMAP
60
30
E0
ENDCHAR

STARTCHAR onesuperior
ENCODING 185
SWIDTH 313 0
DWIDTH 5 0
BBX 4 5 0 5
BITMAP
20
E0
60
60
F0
ENDCHAR

STARTCHAR ordmasculine
ENCODING 186
SWIDTH 375 0
DWIDTH 6 0
BBX 5 5 0 5
BITMAP
70
D8
D8
D8
70
ENDCHAR

STARTCHAR guillemotright
ENCODING 187
SWIDTH 427 0
DWIDTH 6 0
BBX 6 5 0 1
BITMAP
90
48
24
48
90
ENDCHAR

STARTCHAR onequarter
ENCODING 188
SWIDTH 823 0
DWIDTH 12 0
BBX 12 9 0 0
BITMAP
6060
E0C0
6180
6300
F660
0CE0
1960
33F0
6060
ENDCHAR

STARTCHAR onehalf
ENCODING 189
SWIDTH 823 0
DWIDTH 12 0
BBX 11 9 0 0
BITMAP
6060
E0C0
6180
6300
F6C0
0D60
1860
30C0
61E0
ENDCHAR

STARTCHAR threequarters
ENCODING 190
SWIDTH 823 0
DWIDTH 12 0
BBX 12 10 0 0
BITMAP
E060
30C0
6180
3300
E600
0C60
18E0
3160
63F0
C060
ENDCHAR

STARTCHAR questiondown
ENCODING 191
SWIDTH 365 0
DWIDTH 5 0
BBX 4 10 0 -3
BITMAP
30
30
00
10
70
E0
C0
80
F0
70
ENDCHAR

STARTCHAR Agrave
ENCODING 192
SWIDTH 740 0
DWIDTH 11 0
BBX 11 13 0 0
BITMAP
1800
0C00
0000
0C00
0C00
0E00
1600
1300
3F00
2180
4180
40C0
E1E0
ENDCHAR

STARTCHAR Aacute
ENCODING 193
SWIDTH 740 0
DWIDTH 11 0
BBX 11 13 0 0
BITMAP
0600
0C00
0000
0C00
0C00
0E00
1600
1300
3F00
2180
4180
40C0
E1E0
ENDCHAR

STARTCHAR Acircumflex
ENCODING 194
SWIDTH 740 0
DWIDTH 11 0
BBX 11 13 0 0
BITMAP
0E00
1B00
0000
0C00
0C00
0E00
1600
1300
3F00
2180
4180
40C0
E1E0
ENDCHAR

STARTCHAR Atilde
ENCODING 195
SWIDTH 740 0
DWIDTH 11 0
BBX 11 13 0 0
BITMAP
0E80
1700
0000
0C00
0C00
0E00
1600
1300
3F00
2180
4180
40C0
E1E0
ENDCHAR

STARTCHAR Adieresis
ENCODING 196
SWIDTH 740 0
DWIDTH 11 0
BBX 11 13 0 0
BITMAP
3300
3300
0000
0C00
0C00
0E00
1600
1300
3F00
2180
4180
40C0
E1E0
ENDCHAR

STARTCHAR Aring
ENCODING 197
SWIDTH 740 0
DWIDTH 11 0
BBX 11 13 0 0
BITMAP
0C00
1200
0C00
0000
0C00
0E00
1600
1300
3F00
2180
4180
40C0
E1E0
ENDCHAR

STARTCHAR AE
ENCODING 198
SWIDTH 896 0
DWIDTH 13 0
BBX 12 10 0 0
BITMAP
0FF0
0710
0B00
0B20
13E0
1320
3F00
2300
4310
E7F0
ENDCHAR

STARTCHAR Ccedilla
ENCODING 199
SWIDTH 740 0
DWIDTH 11 0
BBX 9 13 1 -3
BITMAP
1F80
6180
C080
C000
C000
C000
C000
C080
6180
1F80
0C00
0600
1C00
ENDCHAR

STARTCHAR Egrave
ENCODING 200
SWIDTH 646 0
DWIDTH 10 0
BBX 8 13 1 0
BITMAP
30
18
00
FF
61
60
62
7E
62
60
60
61
FF
ENDCHAR

STARTCHAR Eacute
ENCODING 201
SWIDTH 646 0
DWIDTH 10 0
BBX 8 13 1 0
BITMAP
0C
18
00
FF
61
60
62
7E
62
60
60
61
FF
ENDCHAR

STARTCHAR Ecircumflex
ENCODING 202
SWIDTH 646 0
DWIDTH 10 0
BBX 8 13 1 0
BITMAP
1C
36
00
FF
61
60
62
7E
62
60
60
61
FF
ENDCHAR

STARTCHAR Edieresis
ENCODING 203
SWIDTH 646 0
DWIDTH 10 0
BBX 8 13 1 0
BITMAP
66
66
00
FF
61
60
62
7E
62
60
60
61
FF
ENDCHAR

STARTCHAR Igrave
ENCODING 204
SWIDTH 365 0
DWIDTH 5 0
BBX 4 13 0 0
BITMAP
C0
60
00
F0
60
60
60
60
60
60
60
60
F0
ENDCHAR

STARTCHAR Iacute
ENCODING 205
SWIDTH 365 0
DWIDTH 5 0
BBX 4 13 0 0
BITMAP
30
60
00
F0
60
60
60
60
60
60
60
60
F0
ENDCHAR

STARTCHAR Icircumflex
ENCODING 206
SWIDTH 365 0
DWIDTH 5 0
BBX 5 13 0 0
BITMAP
70
D8
00
F0
60
60
60
60
60
60
60
60
F0
ENDCHAR

STARTCHAR Idieresis
ENCODING 207
SWIDTH 365 0
DWIDTH 5 0
BBX 5 13 0 0
BITMAP
D8
D8
00
F0
60
60
60
60
60
60
60
60
F0
ENDCHAR

STARTCHAR Eth
ENCODING 208
SWIDTH 823 0
DWIDTH 12 0
BBX 10 10 1 0
BITMAP
FE00
6300
6180
60C0
60C0
F8C0
60C0
6180
6300
FE00
ENDCHAR

STARTCHAR Ntilde
ENCODING 209
SWIDTH 813 0
DWIDTH 12 0
BBX 10 13 1 0
BITMAP
1D00
2E00
0000
E1C0
7080
7880
5C80
4C80
4680
4780
4380
4180
E080
ENDCHAR

STARTCHAR Ograve
ENCODING 210
SWIDTH 844 0
DWIDTH 13 0
BBX 11 13 1 0
BITMAP
0C00
0600
0000
1F00
60C0
C060
C060
C060
C060
C060
C060
60C0
1F00
ENDCHAR

STARTCHAR Oacute
ENCODING 211
SWIDTH 844 0
DWIDTH 13 0
BBX 11 13 1 0
BITMAP
0300
0600
0000
1F00
60C0
C060
C060
C060
C060
C060
C060
60C0
1F00
ENDCHAR

STARTCHAR Ocircumflex
ENCODING 212
SWIDTH 844 0
DWIDTH 13 0
BBX 11 13 1 0
BITMAP
0E00
1B00
0000
1F00
60C0
C060
C060
C060
C060
C060
C060
60C0
1F00
ENDCHAR

STARTCHAR Otilde
ENCODING 213
SWIDTH 844 0
DWIDTH 13 0
BBX 11 13 1 0
BITMAP
0E80
1700
0000
1F00
60C0
C060
C060
C060
C060
C060
C060
60C0
1F00
ENDCHAR

STARTCHAR Odieresis
ENCODING 214
SWIDTH 844 0
DWIDTH 13 0
BBX 11 13 1 0
BITMAP
1980
1980
0000
1F00
60C0
C060
C060
C060
C060
C060
C060
60C0
1F00
ENDCHAR

STARTCHAR multiply
ENCODING 215
SWIDTH 667 0
DWIDTH 10 0
BBX 8 7 1 1
BITMAP
81
42
24
18
24
42
81
ENDCHAR

STARTCHAR Oslash
ENCODING 216
SWIDTH 844 0
DWIDTH 13 0
BBX 13 12 0 -1
BITMAP
0018
0FB0
3060
60F0
61B0
6330
6630
6C30
7830
3060
6F80
C000
ENDCHAR

STARTCHAR Ugrave
ENCODING 217
SWIDTH 771 0
DWIDTH 12 0
BBX 10 13 1 0
BITMAP
0C00
0600
0000
F1C0
6080
6080
6080
6080
6080
6080
6080
3100
1E00
ENDCHAR

STARTCHAR Uacute
ENCODING 218
SWIDTH 771 0
DWIDTH 12 0
BBX 10 13 1 0
BITMAP
0300
0600
0000
F1C0
6080
6080
6080
6080
6080
6080
6080
3100
1E00
ENDCHAR

STARTCHAR Ucircumflex
ENCODING 219
SWIDTH 771 0
DWIDTH 12 0
BBX 10 13 1 0
BITMAP
0E00
1B00
0000
F1C0
6080
6080
6080
6080
6080
6080
6080
3100
1E00
ENDCHAR

STARTCHAR Udieresis
ENCODING 220
SWIDTH 771 0
DWIDTH 12 0
BBX 10 13 1 0
BITMAP
1B00
1B00
0000
F1C0
6080
6080
6080
6080
6080
6080
6080
3100
1E00
ENDCHAR

STARTCHAR Yacute
ENCODING 221
SWIDTH 750 0
DWIDTH 11 0
BBX 10 13 0 0
BITMAP
0600
0C00
0000
F1C0
6080
3100
1A00
0C00
0C00
0C00
0C00
0C00
3F00
ENDCHAR

STARTCHAR Thorn
ENCODING 222
SWIDTH 646 0
DWIDTH 10 0
BBX 8 10 1 0
BITMAP
F0
60
7E
63
63
63
63
7E
60
F0
ENDCHAR

STARTCHAR germandbls
ENCODING 223
SWIDTH 563 0
DWIDTH 8 0
BBX 7 10 0 0
BITMAP
1C
26
66
66
6C
66
66
66
66
EC
ENDCHAR

STARTCHAR agrave
ENCODING 224
SWIDTH 479 0
DWIDTH 7 0
BBX 6 9 1 0
BITMAP
60
30
00
70
D8
38
58
D8
EC
ENDCHAR

STARTCHAR aacute
ENCODING 225
SWIDTH 479 0
DWIDTH 7 0
BBX 6 9 1 0
BITMAP
30
60
00
70
D8
38
58
D8
EC
ENDCHAR

STARTCHAR acircumflex
ENCODING 226
SWIDTH 479 0
DWIDTH 7 0
BBX 6 9 1 0
BITMAP
70
D8
00
70
D8
38
58
D8
EC
ENDCHAR

STARTCHAR atilde
ENCODING 227
SWIDTH 479 0
DWIDTH 7 0
BBX 6 9 1 0
BITMAP
74
B8
00
70
D8
38
58
D8
EC
ENDCHAR

STARTCHAR adieresis
ENCODING 228
SWIDTH 479 0
DWIDTH 7 0
BBX 6 9 1 0
BITMAP
D8
D8
00
70
D8
38
58
D8
EC
ENDCHAR

STARTCHAR aring
ENCODING 229
SWIDTH 479 0
DWIDTH 7 0
BBX 6 10 1 0
BITMAP
30
48
30
00
70
D8
38
58
D8
EC
ENDCHAR

STARTCHAR ae
ENCODING 230
SWIDTH 698 0
DWIDTH 10 0
BBX 8 6 1 0
BITMAP
6E
DB
3F
58
D9
EE
ENDCHAR

STARTCHAR ccedilla
ENCODING 231
SWIDTH 490 0
DWIDTH 7 0
BBX 5 9 1 -3
BITMAP
70
C8
C0
C0
C8
70
60
30
E0
ENDCHAR

STARTCHAR egrave
ENCODING 232
SWIDTH 479 0
DWIDTH 7 0
BBX 5 9 1 0
BITMAP
60
30
00
70
D8
F8
C0
C8
70
ENDCHAR

STARTCHAR eacute
ENCODING 233
SWIDTH 479 0
DWIDTH 7 0
BBX 5 9 1 0
BITMAP
30
60
00
70
D8
F8
C0
C8
70
ENDCHAR

STARTCHAR ecircumflex
ENCODING 234
SWIDTH 479 0
DWIDTH 7 0
BBX 5 9 1 0
BITMAP
70
D8
00
70
D8
F8
C0
C8
70
ENDCHAR

STARTCHAR edieresis
ENCODING 235
SWIDTH 479 0
DWIDTH 7 0
BBX 5 9 1 0
BITMAP
D8
D8
00
70
D8
F8
C0
C8
70
ENDCHAR

STARTCHAR igrave
ENCODING 236
SWIDTH 292 0
DWIDTH 4 0
BBX 4 9 0 0
BITMAP
C0
60
00
60
E0
60
60
60
F0
ENDCHAR

STARTCHAR iacute
ENCODING 237
SWIDTH 292 0
DWIDTH 4 0
BBX 4 9 0 0
BITMAP
30
60
00
60
E0
60
60
60
F0
ENDCHAR

STARTCHAR icircumflex
ENCODING 238
SWIDTH 292 0
DWIDTH 4 0
BBX 5 9 0 0
BITMAP
70
D8
00
60
E0
60
60
60
F0
ENDCHAR

STARTCHAR idieresis
ENCODING 239
SWIDTH 292 0
DWIDTH 4 0
BBX 5 9 0 0
BITMAP
D8
D8
00
60
E0
60
60
60
F0
ENDCHAR

STARTCHAR eth
ENCODING 240
SWIDTH 563 0
DWIDTH 8 0
BBX 6 10 1 0
BITMAP
68
30
58
08
7C
CC
CC
CC
CC
78
ENDCHAR

STARTCHAR ntilde
ENCODING 241
SWIDTH 573 0
DWIDTH 9 0
BBX 8 9 0 0
BITMAP
3A
5C
00
6C
F6
66
66
66
F7
ENDCHAR

STARTCHAR ograve
ENCODING 242
SWIDTH 573 0
DWIDTH 9 0
BBX 6 9 1 0
BITMAP
60
30
00
78
CC
CC
CC
CC
78
ENDCHAR

STARTCHAR oacute
ENCODING 243
SWIDTH 573 0
DWIDTH 9 0
BBX 6 9 1 0
BITMAP
18
30
00
78
CC
CC
CC
CC
78
ENDCHAR

STARTCHAR ocircumflex
ENCODING 244
SWIDTH 573 0
DWIDTH 9 0
BBX 6 9 1 0
BITMAP
38
6C
00
78
CC
CC
CC
CC
78
ENDCHAR

STARTCHAR otilde
ENCODING 245
SWIDTH 573 0
DWIDTH 9 0
BBX 6 9 1 0
BITMAP
74
B8
00
78
CC
CC
CC
CC
78
ENDCHAR

STARTCHAR odieresis
ENCODING 246
SWIDTH 573 0
DWIDTH 9 0
BBX 6 9 1 0
BITMAP
6C
6C
00
78
CC
CC
CC
CC
78
ENDCHAR

STARTCHAR divide
ENCODING 247
SWIDTH 668 0
DWIDTH 10 0
BBX 8 7 1 1
BITMAP
18
00
00
FF
00
00
18
ENDCHAR

STARTCHAR oslash
ENCODING 248
SWIDTH 573 0
DWIDTH 9 0
BBX 6 8 1 -1
BITMAP
04
78
DC
DC
EC
EC
78
80
ENDCHAR

STARTCHAR ugrave
ENCODING 249
SWIDTH 573 0
DWIDTH 9 0
BBX 8 9 0 0
BITMAP
18
0C
00
66
EE
66
66
6E
37
ENDCHAR

STARTCHAR uacute
ENCODING 250
SWIDTH 573 0
DWIDTH 9 0
BBX 8 9 0 0
BITMAP
0C
18
00
66
EE
66
66
6E
37
ENDCHAR

STARTCHAR ucircumflex
ENCODING 251
SWIDTH 573 0
DWIDTH 9 0
BBX 8 9 0 0
BITMAP
1C
36
00
66
EE
66
66
6E
37
ENDCHAR

STARTCHAR udieresis
ENCODING 252
SWIDTH 573 0
DWIDTH 9 0
BBX 8 9 0 0
BITMAP
66
66
00
66
EE
66
66
6E
37
ENDCHAR

STARTCHAR yacute
ENCODING 253
SWIDTH 521 0
DWIDTH 8 0
BBX 8 12 0 -3
BITMAP
0C
18
00
F7
62
34
34
18
18
10
60
60
ENDCHAR

STARTCHAR thorn
ENCODING 254
SWIDTH 573 0
DWIDTH 9 0
BBX 7 13 1 -3
BITMAP
60
E0
60
60
6C
76
66
66
76
6C
60
60
F0
ENDCHAR

STARTCHAR ydieresis
ENCODING 255
SWIDTH 521 0
DWIDTH 8 0
BBX 8 12 0 -3
BITMAP
36
36
00
F7
62
34
34
18
18
10
60
60
ENDCHAR
ENDFONT
